<svg width="88" height="84" viewBox="0 0 88 84" fill="none" xmlns="http://www.w3.org/2000/svg">
<path d="M21.9595 19.3406V30.6951H7.24219L21.9595 19.3406Z" fill="#1443BD"/>
<path d="M21.9595 19.3406V30.6951H7.24219L21.9595 19.3406Z" fill="black" fill-opacity="0.2"/>
<path d="M65.9081 19.3406V30.6867L80.7044 30.6951L65.9081 19.3406Z" fill="#1443BD"/>
<path d="M65.9081 19.3406V30.6867L80.7044 30.6951L65.9081 19.3406Z" fill="black" fill-opacity="0.2"/>
<path d="M65.9087 19.3406L80.7051 30.6951H7.24219L21.9595 19.3406H65.9087Z" fill="#B7EE81"/>
<path d="M65.9087 19.3406L80.7051 30.6951H7.24219L21.9595 19.3406H65.9087Z" fill="white" fill-opacity="0.5"/>
<path d="M43.2301 45.6602C54.7343 45.6602 64.0602 36.3343 64.0602 24.8301C64.0602 13.326 54.7343 4 43.2301 4C31.726 4 22.4 13.326 22.4 24.8301C22.4 36.3343 31.726 45.6602 43.2301 45.6602Z" fill="#1443BD"/>
<path d="M43.2301 45.6602C54.7343 45.6602 64.0602 36.3343 64.0602 24.8301C64.0602 13.326 54.7343 4 43.2301 4C31.726 4 22.4 13.326 22.4 24.8301C22.4 36.3343 31.726 45.6602 43.2301 45.6602Z" fill="white" fill-opacity="0.65"/>
<path d="M42.948 41.096C52.0872 41.096 59.496 33.6872 59.496 24.548C59.496 15.4088 52.0872 8 42.948 8C33.8088 8 26.4 15.4088 26.4 24.548C26.4 33.6872 33.8088 41.096 42.948 41.096Z" fill="#1443BD"/>
<path d="M42.948 41.096C52.0872 41.096 59.496 33.6872 59.496 24.548C59.496 15.4088 52.0872 8 42.948 8C33.8088 8 26.4 15.4088 26.4 24.548C26.4 33.6872 33.8088 41.096 42.948 41.096Z" fill="white" fill-opacity="0.5"/>
<path d="M43.07 35.308C42.5847 35.308 42.1974 35.2707 41.908 35.196V32.704C40.9747 32.5733 40.1114 32.3493 39.318 32.032C38.5247 31.7147 37.8854 31.3927 37.4 31.066C37.4094 30.6647 37.5307 30.2353 37.764 29.778C37.9974 29.3207 38.2587 28.9987 38.548 28.812C39.1827 29.2227 39.9154 29.5867 40.746 29.904C41.5767 30.2213 42.398 30.3847 43.21 30.394C44.0034 30.394 44.6567 30.226 45.17 29.89C45.6834 29.5447 45.9447 29.0593 45.954 28.434C45.9634 27.9207 45.8094 27.468 45.492 27.076C45.1747 26.6747 44.666 26.3527 43.966 26.11L41.25 25.144C40.2327 24.7893 39.4207 24.2807 38.814 23.618C38.2167 22.946 37.918 22.1013 37.918 21.084C37.918 19.9173 38.3054 18.9187 39.08 18.088C39.864 17.2573 40.9 16.7487 42.188 16.562V14.112C42.3467 14.0747 42.5287 14.0467 42.734 14.028C42.9487 14.0093 43.154 14 43.35 14C43.8074 14 44.19 14.0373 44.498 14.112V16.576C45.282 16.66 46.0054 16.814 46.668 17.038C47.34 17.262 47.9374 17.5093 48.46 17.78C48.46 18.1907 48.362 18.606 48.166 19.026C47.9794 19.446 47.7367 19.7913 47.438 20.062C46.7847 19.7073 46.1127 19.4273 45.422 19.222C44.7407 19.0167 44.0687 18.914 43.406 18.914C42.6407 18.914 42.0294 19.082 41.572 19.418C41.1147 19.754 40.886 20.2067 40.886 20.776C40.886 21.3173 41.0634 21.728 41.418 22.008C41.7727 22.2787 42.2394 22.5167 42.818 22.722L45.394 23.66C46.486 24.052 47.354 24.6213 47.998 25.368C48.642 26.1147 48.964 27.0807 48.964 28.266C48.964 29.4607 48.5394 30.4687 47.69 31.29C46.8407 32.102 45.6834 32.5873 44.218 32.746V35.196C43.938 35.2707 43.5554 35.308 43.07 35.308Z" fill="white"/>
<path d="M7.42126 44.5586H80.6551V81.1398C80.6551 82.7192 79.4248 83.9996 77.907 83.9996H10.1694C8.65164 83.9996 7.42126 82.7192 7.42126 81.1398V44.5586Z" fill="#1443BD"/>
<path d="M7.32592 30.6951L0.179669 47.0554C-0.0919667 47.6457 -0.0536114 48.3398 0.281264 48.8938C0.61614 49.4479 1.20072 49.7844 1.82968 49.7853H86.1637C86.8064 49.7853 87.4021 49.4344 87.7334 48.8612C88.0646 48.2879 88.0829 47.5759 87.7816 46.9851L80.7831 30.6951H7.32592Z" fill="#2A84C6"/>
<path d="M7.32592 30.6951L0.179669 47.0554C-0.0919667 47.6457 -0.0536114 48.3398 0.281264 48.8938C0.61614 49.4479 1.20072 49.7844 1.82968 49.7853H86.1637C86.8064 49.7853 87.4021 49.4344 87.7334 48.8612C88.0646 48.2879 88.0829 47.5759 87.7816 46.9851L80.7831 30.6951H7.32592Z" fill="white" fill-opacity="0.85"/>
</svg>
