<svg xmlns="http://www.w3.org/2000/svg"  viewBox="0 0 100 100" width="100px" height="100px"><path fill="#f1bc19" d="M77 12A1 1 0 1 0 77 14A1 1 0 1 0 77 12Z"/><path fill="#e6edb7" d="M50 13A37 37 0 1 0 50 87A37 37 0 1 0 50 13Z"/><path fill="#f1bc19" d="M83 11A4 4 0 1 0 83 19A4 4 0 1 0 83 11Z"/><path fill="#88ae45" d="M87 22A2 2 0 1 0 87 26A2 2 0 1 0 87 22Z"/><path fill="#fbcd59" d="M81 74A2 2 0 1 0 81 78 2 2 0 1 0 81 74zM15 59A4 4 0 1 0 15 67 4 4 0 1 0 15 59z"/><path fill="#88ae45" d="M25 85A2 2 0 1 0 25 89A2 2 0 1 0 25 85Z"/><path fill="#fff" d="M18.5 49A2.5 2.5 0 1 0 18.5 54 2.5 2.5 0 1 0 18.5 49zM79.5 32A1.5 1.5 0 1 0 79.5 35 1.5 1.5 0 1 0 79.5 32z"/><path fill="#fddbbc" d="M31.125,55.3c-0.786,0-1.425-0.639-1.425-1.425v-7.75c0-0.786,0.639-1.425,1.425-1.425h7.75 c0.786,0,1.425,0.639,1.425,1.425v7.75c0,0.786-0.639,1.425-1.425,1.425H31.125z"/><path fill="#472b29" d="M38.875,45.4c0.4,0,0.725,0.325,0.725,0.725v7.75c0,0.4-0.325,0.725-0.725,0.725h-7.75 c-0.4,0-0.725-0.325-0.725-0.725v-7.75c0-0.4,0.325-0.725,0.725-0.725H38.875 M38.875,44h-7.75C29.951,44,29,44.951,29,46.125 v7.75C29,55.049,29.951,56,31.125,56h7.75C40.049,56,41,55.049,41,53.875v-7.75C41,44.951,40.049,44,38.875,44L38.875,44z"/><path fill="#fddbbc" d="M31.125,70.3c-0.786,0-1.425-0.639-1.425-1.425v-7.75c0-0.786,0.639-1.425,1.425-1.425h7.75 c0.786,0,1.425,0.639,1.425,1.425v7.75c0,0.786-0.639,1.425-1.425,1.425H31.125z"/><path fill="#472b29" d="M38.875,60.4c0.4,0,0.725,0.325,0.725,0.725v7.75c0,0.4-0.325,0.725-0.725,0.725h-7.75 c-0.4,0-0.725-0.325-0.725-0.725v-7.75c0-0.4,0.325-0.725,0.725-0.725H38.875 M38.875,59h-7.75C29.951,59,29,59.951,29,61.125 v7.75C29,70.049,29.951,71,31.125,71h7.75C40.049,71,41,70.049,41,68.875v-7.75C41,59.951,40.049,59,38.875,59L38.875,59z"/><g><path fill="#fddbbc" d="M31.125,40.3c-0.786,0-1.425-0.639-1.425-1.425v-7.75c0-0.786,0.639-1.425,1.425-1.425h7.75 c0.786,0,1.425,0.639,1.425,1.425v7.75c0,0.786-0.639,1.425-1.425,1.425H31.125z"/><path fill="#472b29" d="M38.875,30.4c0.4,0,0.725,0.325,0.725,0.725v7.75c0,0.4-0.325,0.725-0.725,0.725h-7.75 c-0.4,0-0.725-0.325-0.725-0.725v-7.75c0-0.4,0.325-0.725,0.725-0.725H38.875 M38.875,29h-7.75C29.951,29,29,29.951,29,31.125 v7.75C29,40.049,29.951,41,31.125,41h7.75C40.049,41,41,40.049,41,38.875v-7.75C41,29.951,40.049,29,38.875,29L38.875,29z"/></g><g><path fill="#78a2d2" d="M36.289,37h-2.577C33.319,37,33,36.681,33,36.289v-2.578C33,33.318,33.318,33,33.711,33h2.578 C36.682,33,37,33.318,37,33.711v2.578C37,36.681,36.681,37,36.289,37z"/><path fill="#472b29" d="M36.288,37.5h-2.576c-0.668,0-1.212-0.544-1.212-1.212v-2.577c0-0.668,0.543-1.211,1.211-1.211 h2.578c0.668,0,1.211,0.543,1.211,1.211v2.577C37.5,36.956,36.956,37.5,36.288,37.5z M33.711,33.5 c-0.116,0-0.211,0.095-0.211,0.211v2.577c0,0.117,0.095,0.212,0.212,0.212h2.576c0.117,0,0.212-0.095,0.212-0.212v-2.577 c0-0.116-0.095-0.211-0.211-0.211H33.711z"/></g><g><path fill="#78a2d2" d="M36.289,52h-2.577C33.319,52,33,51.681,33,51.289v-2.578C33,48.318,33.318,48,33.711,48h2.578 C36.682,48,37,48.318,37,48.711v2.578C37,51.681,36.681,52,36.289,52z"/><path fill="#472b29" d="M36.288,52.5h-2.576c-0.668,0-1.212-0.544-1.212-1.212v-2.577c0-0.668,0.543-1.211,1.211-1.211 h2.578c0.668,0,1.211,0.543,1.211,1.211v2.577C37.5,51.956,36.956,52.5,36.288,52.5z M33.711,48.5 c-0.116,0-0.211,0.095-0.211,0.211v2.577c0,0.117,0.095,0.212,0.212,0.212h2.576c0.117,0,0.212-0.095,0.212-0.212v-2.577 c0-0.116-0.095-0.211-0.211-0.211H33.711z"/></g><g><path fill="#84a7d7" d="M46.687,38.3c-0.545,0-0.987-0.442-0.987-0.987v-4.625c0-0.545,0.442-0.987,0.987-0.987h24.625 c0.545,0,0.987,0.442,0.987,0.987v4.625c0,0.545-0.442,0.987-0.987,0.987H46.687z"/><path fill="#472b29" d="M71.312,32.4c0.159,0,0.287,0.129,0.287,0.288v4.625c0,0.158-0.129,0.288-0.287,0.288H46.687 c-0.158,0-0.287-0.129-0.287-0.288v-4.625c0-0.158,0.129-0.288,0.287-0.288H71.312 M71.312,31H46.687 C45.755,31,45,31.756,45,32.688v4.625C45,38.244,45.755,39,46.687,39h24.625C72.245,39,73,38.244,73,37.313v-4.625 C73,31.756,72.245,31,71.312,31L71.312,31z"/></g><g><path fill="#84a7d7" d="M46.687,53.3c-0.545,0-0.987-0.442-0.987-0.987v-4.625c0-0.545,0.442-0.987,0.987-0.987h24.625 c0.545,0,0.987,0.442,0.987,0.987v4.625c0,0.545-0.442,0.987-0.987,0.987H46.687z"/><path fill="#472b29" d="M71.312,47.4c0.159,0,0.287,0.129,0.287,0.288v4.625c0,0.158-0.129,0.288-0.287,0.288H46.687 c-0.158,0-0.287-0.129-0.287-0.288v-4.625c0-0.158,0.129-0.288,0.287-0.288H71.312 M71.312,46H46.687 C45.755,46,45,46.756,45,47.688v4.625C45,53.244,45.755,54,46.687,54h24.625C72.245,54,73,53.244,73,52.313v-4.625 C73,46.756,72.245,46,71.312,46L71.312,46z"/></g><g><path fill="#84a7d7" d="M46.687,68.3c-0.545,0-0.987-0.442-0.987-0.987v-4.625c0-0.545,0.442-0.987,0.987-0.987h24.625 c0.545,0,0.987,0.442,0.987,0.987v4.625c0,0.545-0.442,0.987-0.987,0.987H46.687z"/><path fill="#472b29" d="M71.312,62.4c0.159,0,0.287,0.129,0.287,0.288v4.625c0,0.158-0.129,0.288-0.287,0.288H46.687 c-0.158,0-0.287-0.129-0.287-0.288v-4.625c0-0.158,0.129-0.288,0.287-0.288H71.312 M71.312,61H46.687 C45.755,61,45,61.756,45,62.688v4.625C45,68.244,45.755,69,46.687,69h24.625C72.245,69,73,68.244,73,67.313v-4.625 C73,61.756,72.245,61,71.312,61L71.312,61z"/></g><g><path fill="#472b29" d="M72.5,35.75h-18c-0.138,0-0.25-0.112-0.25-0.25s0.112-0.25,0.25-0.25h18 c0.138,0,0.25,0.112,0.25,0.25S72.638,35.75,72.5,35.75z"/></g><g><path fill="#472b29" d="M52.5,35.75h-4c-0.138,0-0.25-0.112-0.25-0.25s0.112-0.25,0.25-0.25h4c0.138,0,0.25,0.112,0.25,0.25 S52.638,35.75,52.5,35.75z"/></g><g><path fill="#472b29" d="M60.5,65.75h-4c-0.138,0-0.25-0.112-0.25-0.25s0.112-0.25,0.25-0.25h4c0.138,0,0.25,0.112,0.25,0.25 S60.638,65.75,60.5,65.75z"/></g><g><path fill="#472b29" d="M72.5,65.75h-10c-0.138,0-0.25-0.112-0.25-0.25s0.112-0.25,0.25-0.25h10 c0.138,0,0.25,0.112,0.25,0.25S72.638,65.75,72.5,65.75z"/></g></svg>